<svg width="64" height="64" viewBox="0 0 64 64" fill="none" xmlns="http://www.w3.org/2000/svg">
<path fill-rule="evenodd" clip-rule="evenodd" d="M0 0L5.82432 57.602L31.9613 64L58.1694 57.5926L64 0H0ZM53.2049 53.9686L32.0537 59.0995L32.0537 51.7677L31.9901 51.781L15.5505 47.7672L14.4281 36.6821H22.4712L23.055 42.3089L31.9918 44.4252L32.0537 44.417L32.0537 18.4061H12.6194L11.9095 11.3518H31.9725H32.0537V4.79712H58.1606L53.2049 53.9686ZM13.3318 25.9598L14.0334 33.014L32.0537 33.014V25.9598V25.9597V18.894L13.3318 25.9598Z" fill="#7B4AE2" fill-opacity="0.5"/>
<path fill-rule="evenodd" clip-rule="evenodd" d="M33.3451 18.4061L32.0537 18.8941V25.9597V25.9598V33.014H41.8381L40.9488 42.2369L32.0537 44.4232V51.7733L48.4387 47.7596L50.5963 25.9597H32.054L51.3237 18.4061L52.0118 11.3518H32.0537V18.3176V18.4061H33.3451Z" fill="#7B4AE2" fill-opacity="0.5"/>
</svg>
