<svg width="64" height="64" viewBox="0 0 64 64" fill="none" xmlns="http://www.w3.org/2000/svg">
<g clip-path="url(#clip0_21_3166)">
<path d="M32 0C14.3269 0 0 14.3269 0 32C0 49.6732 14.3269 64 32 64C49.6732 64 64 49.6732 64 32C64 14.3269 49.6732 0 32 0ZM32 3.25424C47.8758 3.25424 60.7458 16.1242 60.7458 32C60.7458 47.8758 47.8758 60.7458 32 60.7458C16.1242 60.7458 3.25424 47.8758 3.25424 32C3.25424 16.1242 16.1242 3.25424 32 3.25424Z" fill="#7B4AE2" fill-opacity="0.5"/>
<path d="M32.3614 9.22046C44.9424 9.22046 55.1412 19.4193 55.1412 32.0001C55.1412 44.5809 44.9424 54.7797 32.3614 54.7797C19.7806 54.7797 9.58179 44.5809 9.58179 32.0001C9.58179 28.9255 10.1909 25.9931 11.2952 23.3169C12.9075 25.5125 15.5075 26.9379 18.4405 26.9379C23.3332 26.9379 27.2992 22.9717 27.2992 18.0792C27.2992 15.1462 25.874 12.5461 23.6782 10.9339C26.3544 9.82962 29.2868 9.22046 32.3614 9.22046Z" fill="#7B4AE2" fill-opacity="0.5"/>
</g>
<defs>
<clipPath id="clip0_21_3166">
<rect width="64" height="64" fill="white"/>
</clipPath>
</defs>
</svg>
