<svg width="64" height="64" viewBox="0 0 64 64" fill="none" xmlns="http://www.w3.org/2000/svg">
<g clip-path="url(#clip0_21_3161)">
<path fill-rule="evenodd" clip-rule="evenodd" d="M0.75 8.74976C0.75 4.33148 4.33172 0.749756 8.75 0.749756H55.25C59.6683 0.749756 63.25 4.33148 63.25 8.74976V55.2498C63.25 59.668 59.6683 63.2498 55.25 63.2498H8.75C4.33172 63.2498 0.75 59.668 0.75 55.2498V8.74976ZM17.1835 52.9792C17.1835 52.9793 17.1836 52.9793 17.1836 52.9793L17.1836 52.9793C18.5681 55.9157 21.2955 58.3489 25.9937 58.3489C31.1962 58.3489 34.7621 55.5799 34.7621 49.4966V32.38C34.7621 30.7581 33.4473 29.4433 31.8254 29.4433V29.4433C30.2035 29.4433 28.8887 30.7581 28.8887 32.38V49.4135C28.8887 52.3501 27.6719 53.105 25.742 53.105V53.105C22.9352 53.105 19.9798 51.287 17.5785 52.7403L17.1836 52.9793L17.1836 52.9792C17.1836 52.9792 17.1835 52.9792 17.1835 52.9792V52.9792ZM44.5055 51.7439C43.3176 50.7308 41.6567 50.2052 40.3056 50.9875V50.9875C38.9851 51.7521 38.4617 53.4522 39.471 54.5966C41.4409 56.83 44.4821 58.3494 48.6505 58.3494C54.2303 58.3494 58.3836 55.4548 58.3836 50.1683C58.3836 45.2599 55.5726 43.0785 50.5801 40.9387L49.1118 40.3095C46.5948 39.2186 45.504 38.5052 45.504 36.7431C45.504 35.3169 46.5948 34.2261 48.315 34.2261C49.0314 34.2261 49.6407 34.3561 50.1822 34.6455C51.5566 35.3799 53.1984 36.0316 54.5097 35.1896V35.1896C55.7177 34.4139 56.1479 32.7843 55.1649 31.738C53.4061 29.866 51.1663 29.1075 48.3149 29.1075C43.0704 29.1075 39.7142 32.4639 39.7142 36.8691C39.7142 41.6519 42.5252 43.9174 46.7628 45.7211L48.2308 46.3508C50.9159 47.5252 52.51 48.2384 52.51 50.2522C52.51 51.9304 50.9581 53.1472 48.5245 53.1472C46.8005 53.1472 45.5229 52.6115 44.5055 51.7439Z" fill="#7B4AE2" fill-opacity="0.5"/>
</g>
<defs>
<clipPath id="clip0_21_3161">
<rect y="-0.000244141" width="64" height="64" rx="8" fill="white"/>
</clipPath>
</defs>
</svg>
