<svg width="64" height="64" viewBox="0 0 64 64" fill="none" xmlns="http://www.w3.org/2000/svg">
<path fill-rule="evenodd" clip-rule="evenodd" d="M37.6745 0.0151821C37.2136 0.0151821 36.7829 0.113865 36.39 0.242913C37.2324 0.812241 37.6934 1.55237 37.9276 2.39877C37.9427 2.51263 37.9767 2.59613 37.9918 2.71379C38.0069 2.83146 38.0296 2.91116 38.0296 3.01744C38.0976 4.47871 37.6518 4.66089 37.3345 5.52248C36.8547 6.63456 36.9869 7.83015 37.5611 8.78662C37.6137 8.91467 37.6796 9.0368 37.7576 9.15099C37.1304 4.95315 40.6175 4.3193 41.2597 3.00984C41.3088 1.8636 40.3681 1.1007 39.6239 0.569327C38.9136 0.136639 38.2638 0 37.6745 0V0.0151821ZM42.9258 0.964061C42.8578 1.34361 42.9107 1.24493 42.888 1.44609L42.8503 1.87878L42.7369 2.27731C42.6991 2.41015 42.6538 2.543 42.6047 2.67584L42.4233 3.05539C42.3742 3.12371 42.3402 3.18823 42.2911 3.25276L42.1929 3.40458L41.9435 3.73479C41.8453 3.83347 41.7622 3.95113 41.6413 4.03843C41.5204 4.12573 41.4449 4.2358 41.3277 4.3193C40.9802 4.58498 40.5835 4.78235 40.2208 5.03285C40.1075 5.11636 39.9941 5.18468 39.8921 5.28336C39.7803 5.36284 39.6754 5.45172 39.5786 5.54904C39.4652 5.64773 39.3821 5.74641 39.2763 5.86407C39.1705 5.98173 39.095 6.08042 39.027 6.19428L38.8003 6.54347L38.619 6.92302L38.4867 7.30257L38.3734 7.72008C38.3583 7.7884 38.3583 7.8719 38.3356 7.93642C38.3129 8.00095 38.3205 8.06927 38.2978 8.13379L38.2827 8.5513C38.2827 8.64998 38.2827 8.74866 38.2978 8.85494C38.2978 8.98778 38.3129 9.12062 38.3469 9.27245C38.3809 9.42427 38.3961 9.53813 38.4301 9.67097L38.5623 10.0695C38.6001 10.153 38.6454 10.2365 38.6756 10.2972L34.875 8.81698L32.9596 8.32357L31.9169 8.07306C30.9225 7.87393 29.9188 7.72446 28.9096 7.62519C28.8719 7.62519 28.8605 7.61001 28.8265 7.61001L25.8684 7.45819L23.7036 7.54169C22.6949 7.61001 21.6862 7.73906 20.6813 7.90606L19.937 8.0389L18.4485 8.36911L17.7043 8.56648L16.994 8.88151L16.45 9.13201C16.4122 9.14719 16.382 9.14719 16.3669 9.16997L15.906 9.3977C15.8569 9.41288 15.8229 9.43565 15.7926 9.44704L15.2788 9.71273C15.1655 9.76207 15.0522 9.82659 14.9502 9.87973C14.901 9.91768 14.8368 9.94425 14.799 9.96323L14.3684 10.2137C14.2315 10.2897 14.0991 10.3733 13.9717 10.4642L13.643 10.692L13.2803 10.9577L13.0007 11.1854C12.963 11.2006 12.9327 11.2347 12.9025 11.2537L12.6532 11.4701C12.6381 11.508 12.6041 11.5194 12.5852 11.5384L12.2829 11.8192L11.9542 12.1343L11.6747 12.4379C11.6369 12.4759 11.5916 12.5062 11.5613 12.5366C11.4726 12.6406 11.3793 12.7407 11.2818 12.8364C11.2667 12.8744 11.2327 12.8858 11.2138 12.9199L10.836 13.3185L9.94438 14.18C9.64215 14.4457 9.33235 14.6962 9.01879 14.9088L8.02896 15.5388C7.70028 15.721 7.34894 15.888 6.98625 16.0323C6.63517 16.1823 6.27711 16.3153 5.91332 16.4308C5.21818 16.5826 4.50792 16.8635 3.8959 16.9128C3.76367 16.9128 3.61633 16.9508 3.48032 16.9622L3.06475 17.0608L2.66807 17.2127C2.53281 17.2665 2.4004 17.3273 2.27138 17.3949C2.15804 17.4784 2.02204 17.5467 1.9087 17.6226C1.79536 17.6985 1.68202 17.8048 1.58002 17.9035C1.47801 18.0021 1.35334 18.1008 1.25134 18.2071L0.97177 18.5373C0.888656 18.6701 0.790429 18.7878 0.722426 18.9169C0.635962 19.0385 0.558918 19.1667 0.491972 19.3002L0.310631 19.7329L0.159513 20.1656L0.0763984 20.5641C0.0272851 20.7615 0.0272851 20.9626 0.00839543 21.0575C-0.0104943 21.1524 0.00839543 21.2777 0.00839543 21.3953C0.00518602 21.4678 0.0102564 21.5404 0.0235072 21.6117C0.038619 21.7255 0.0612866 21.828 0.0915101 21.9267L0.204848 22.2303C0.253962 22.3442 0.318187 22.4467 0.38619 22.5454L0.601532 22.849L0.8811 23.1147C0.977943 23.212 1.08284 23.3009 1.19467 23.3804C1.59135 23.7296 1.6858 23.8434 2.20338 24.1091C2.28649 24.1585 2.36961 24.1926 2.46784 24.242C2.51695 24.2913 2.51695 24.3065 2.53584 24.3406C2.55095 24.4735 2.58495 24.6063 2.61895 24.7392C2.6505 24.8759 2.69477 25.0093 2.75118 25.1377L2.88341 25.4413C2.89852 25.4793 2.92119 25.5097 2.93252 25.5248L3.12897 25.8892L3.37832 26.2384L3.65789 26.5534C3.75611 26.6521 3.85434 26.7356 3.97146 26.8343L4.30014 27.0848C4.41348 27.1683 4.52681 27.2366 4.66282 27.3011C4.78504 27.3719 4.91263 27.4328 5.04439 27.4833C5.14262 27.5327 5.25973 27.5668 5.37307 27.5972C5.48641 27.6276 5.58841 27.6655 5.65264 27.6807C5.60353 28.5764 5.58464 29.4266 5.72064 29.7227C5.87176 30.0529 6.59712 29.0395 7.32249 27.8819C7.22426 29.0281 7.15626 30.3717 7.32249 30.7665C7.48872 31.1612 8.49365 29.8859 9.35502 28.4588C21.0666 25.7374 31.7582 33.8712 32.8803 45.3564C32.6649 43.5649 30.4699 42.5667 29.4612 42.8134C28.9701 44.0432 28.1238 45.6221 26.7676 46.5975C26.8809 45.4969 26.8318 44.3734 26.6013 43.2765C26.2317 44.8045 25.5327 46.2323 24.5537 47.4591C22.9858 47.573 21.418 46.8139 20.5868 45.6676C20.5188 45.6183 20.5037 45.5158 20.4546 45.4513L20.3224 45.1021C20.2733 44.9883 20.2393 44.8744 20.2242 44.7529C20.209 44.6315 20.209 44.5252 20.209 44.3886V44.1381C20.2242 44.0242 20.2582 43.9103 20.2922 43.7889L20.4055 43.4397C20.4735 43.3258 20.5188 43.212 20.602 43.0905C20.8815 42.3314 20.8815 41.6482 20.3753 41.2687C20.277 41.2003 20.1788 41.1548 20.0617 41.1016C19.9937 41.0865 19.9106 41.0523 19.8464 41.0333L19.7141 40.984L19.3666 40.9005C19.2536 40.8676 19.1366 40.851 19.019 40.8511C18.899 40.8315 18.7778 40.8201 18.6563 40.817C18.5732 40.817 18.4901 40.8322 18.407 40.8322C18.2843 40.8311 18.1622 40.8478 18.0443 40.8815L17.6967 40.946L17.3491 41.0599L17.0205 41.2117L16.7069 41.3787C12.8534 43.9027 15.1579 49.8048 17.7798 51.5203C16.79 51.7025 15.7775 51.9189 15.5017 52.1352C16.1818 52.5983 16.9222 52.9702 17.7005 53.2815L20.3753 54.0406C21.7467 54.3442 23.1332 54.4391 24.5386 54.3556C28.1085 54.093 31.4822 52.6139 34.1017 50.1631C36.7211 47.7122 38.4294 44.4365 38.9439 40.8777L39.0421 41.3104L39.1932 42.2403L39.2612 42.6882L39.299 43.1816L39.3368 43.7281V43.9938C39.3368 44.0773 39.3519 44.176 39.3519 44.2595C39.3519 44.343 39.3368 44.4569 39.3368 44.5632V44.7909C39.3368 44.9048 39.3217 45.0072 39.3217 45.1211C39.3217 45.1856 39.3217 45.2539 39.3065 45.3374L39.2914 45.7018C39.2763 45.7512 39.2763 45.8005 39.2763 45.8536L39.2272 46.2332C39.2272 46.2825 39.2272 46.3319 39.2121 46.385L39.1479 46.867V46.905L39.0496 47.368L38.9514 47.8615L38.8192 48.3776L38.687 48.8938L38.5207 49.4252L38.158 50.3893L37.9616 50.8713L37.7349 51.3344C37.7198 51.3837 37.6971 51.4179 37.6858 51.4482C36.5789 53.6724 34.9921 55.5853 33.0087 57.0732C32.8765 57.1567 32.7443 57.2554 32.612 57.354C32.5742 57.392 32.5289 57.4034 32.4987 57.4375L32.136 57.688L32.1851 57.7867H32.2002L32.8954 57.688H32.9105L34.195 57.4603C34.3083 57.4451 34.4443 57.411 34.5577 57.3768L34.7843 57.3275L35.1319 57.263L35.4342 57.1795C37.0851 56.7809 38.6832 56.2306 40.2246 55.5853C37.5989 59.1911 34.0779 62.0909 29.9637 64C31.864 63.8672 33.7643 63.5521 35.5928 63.0208C42.2496 61.0471 47.8522 56.5494 51.2071 50.488C50.5268 54.331 49.0097 57.9755 46.7642 61.1609C48.366 60.0982 49.8357 58.8723 51.1768 57.4793C54.8746 53.6004 57.3017 48.6771 58.132 43.3714C58.6987 45.9903 58.8574 48.7003 58.6118 51.3723C70.5388 34.6569 59.6016 17.3265 55.0228 12.7643C55.0077 12.7264 54.985 12.715 54.985 12.6808C54.9472 12.8782 54.9359 13.0793 54.9208 13.2767C54.8717 13.6563 54.8225 14.0244 54.7545 14.3888C54.6865 14.7532 54.5732 15.1175 54.475 15.4895C54.3767 15.8615 54.2256 16.2031 54.0783 16.5522C53.931 16.9014 53.7647 17.2354 53.5872 17.5657C53.4051 17.8903 53.2071 18.2057 52.994 18.5107C52.7787 18.8258 52.5482 19.1256 52.314 19.4065C52.0674 19.6954 51.8077 19.9728 51.5357 20.2377C51.3695 20.3895 51.2222 20.5186 51.0559 20.6552L50.6781 20.9854C50.3831 21.2205 50.074 21.4373 49.7525 21.6344C49.4371 21.8389 49.1118 22.0276 48.7778 22.2C48.4303 22.367 48.0827 22.515 47.7351 22.663C47.3833 22.7968 47.0252 22.9133 46.6622 23.0122C46.2995 23.1109 45.9179 23.1944 45.5553 23.2627C45.1926 23.331 44.7997 23.3614 44.4332 23.3956C44.1688 23.4107 43.9043 23.4335 43.6776 23.4335C43.2998 23.4335 42.922 23.3956 42.5556 23.3652C42.1891 23.3348 41.8 23.2817 41.4297 23.1982C41.0548 23.1301 40.685 23.0362 40.3228 22.9173H40.3077C40.6704 22.8794 41.0331 22.849 41.4033 22.7845C41.7735 22.72 42.1476 22.6327 42.5102 22.534C42.8729 22.4353 43.2356 22.3176 43.5832 22.1848C43.9307 22.052 44.2934 21.8812 44.6259 21.7217C44.9645 21.5559 45.2948 21.3735 45.6157 21.1752C45.9293 20.9588 46.2428 20.7425 46.5413 20.511C46.8373 20.2796 47.1187 20.0298 47.3838 19.7633C47.6633 19.5128 47.9127 19.2319 48.162 18.951C48.4114 18.6701 48.6418 18.3551 48.8572 18.0553C48.895 18.0059 48.9252 17.9414 48.9554 17.8883L49.4352 17.1292C49.6165 16.799 49.7828 16.465 49.9263 16.1158C50.0699 15.7666 50.2059 15.4174 50.323 15.053C50.4401 14.6886 50.5195 14.3395 50.6026 13.9751C50.6857 13.6107 50.7348 13.2274 50.7688 12.863C50.8028 12.4986 50.833 12.1039 50.833 11.7357C50.833 11.47 50.8179 11.2044 50.7953 10.9766C50.7575 10.5971 50.7121 10.2289 50.663 9.86455C50.5973 9.49014 50.5141 9.11903 50.4137 8.75246C50.3004 8.40327 50.187 8.0389 50.051 7.68972C49.915 7.34053 49.7488 6.99134 49.5901 6.66493C49.4314 6.33851 49.2274 6.00071 49.0234 5.68568C48.8194 5.37066 48.5927 5.07081 48.3623 4.77476L47.6067 3.92836C47.4671 3.78632 47.3235 3.64836 47.176 3.51465C46.4357 2.93661 45.6692 2.39327 44.879 1.88637C44.7657 1.82185 44.6637 1.77251 44.5503 1.71937C44.0063 1.37018 43.4925 1.188 42.9825 1.02099L42.9258 0.964061Z" fill="#7B4AE2" fill-opacity="0.55"/>
</svg>
