<svg width="64" height="59" viewBox="0 0 64 59" fill="none" xmlns="http://www.w3.org/2000/svg">
<path d="M63.3601 52.5493L44.8975 12.1147C44.5775 11.8 43.6176 9.558 41.6977 9.558C40.8978 9.558 39.7779 9.95133 38.626 12.1147L36.2582 16.756L29.7947 2.55667C29.6347 2.16333 28.5148 0 26.5949 0C25.795 0 24.5151 0.393334 23.5551 2.55667L0.580928 52.3527C0.42094 52.746 -0.538985 55.0667 0.42094 57.0333C0.740915 58.0167 1.70084 59 3.81268 59H60.3203C60.6403 59 62.7201 59 63.68 57.0333C64 56.0893 64.32 54.516 63.3601 52.5493ZM19.5235 52.3527L19.0435 54.516H3.97266L26.7549 5.27067L34.1143 21.5153L19.5235 52.3527ZM23.0752 54.516L36.2262 26.196L49.6011 54.516H23.0752ZM53.5688 54.516L52.9289 52.3527L38.402 21.476L41.6977 14.6713L60.0003 54.516H53.5688Z" fill="#7B4AE2" fill-opacity="0.5"/>
</svg>
