<svg width="66" height="64" viewBox="0 0 66 64" fill="none" xmlns="http://www.w3.org/2000/svg">
<path d="M10.2695 14H55.4554V44C55.4554 44.5304 55.2391 45.0391 54.8539 45.4142C54.4687 45.7893 53.9463 46 53.4015 46H43.132C42.5873 46 42.0649 45.7893 41.6797 45.4142C41.2945 45.0391 41.0781 44.5304 41.0781 44V38H24.6469V52C24.6469 52.5304 24.4305 53.0391 24.0453 53.4142C23.6601 53.7893 23.1377 54 22.593 54H12.3234C11.7787 54 11.2563 53.7893 10.8711 53.4142C10.4859 53.0391 10.2695 52.5304 10.2695 52V14Z" stroke="#7B4AE2" stroke-linecap="round" stroke-linejoin="round"/>
<path d="M24.6469 30H10.2695" stroke="#7B4AE2" stroke-linecap="round" stroke-linejoin="round"/>
<path d="M24.6469 14V38" stroke="#7B4AE2" stroke-linecap="round" stroke-linejoin="round"/>
<path d="M41.0781 30H55.4555" stroke="#7B4AE2" stroke-linecap="round" stroke-linejoin="round"/>
<path d="M41.0781 14V38" stroke="#7B4AE2" stroke-linecap="round" stroke-linejoin="round"/>
<g filter="url(#filter0_d_21_2891)">
<circle cx="33" cy="32" r="20" fill="#7B4AE2" fill-opacity="0.2" shape-rendering="crispEdges"/>
</g>
<defs>
<filter id="filter0_d_21_2891" x="9" y="12" width="48" height="48" filterUnits="userSpaceOnUse" color-interpolation-filters="sRGB">
<feFlood flood-opacity="0" result="BackgroundImageFix"/>
<feColorMatrix in="SourceAlpha" type="matrix" values="0 0 0 0 0 0 0 0 0 0 0 0 0 0 0 0 0 0 127 0" result="hardAlpha"/>
<feOffset dy="4"/>
<feGaussianBlur stdDeviation="2"/>
<feComposite in2="hardAlpha" operator="out"/>
<feColorMatrix type="matrix" values="0 0 0 0 0 0 0 0 0 0 0 0 0 0 0 0 0 0 0.25 0"/>
<feBlend mode="normal" in2="BackgroundImageFix" result="effect1_dropShadow_21_2891"/>
<feBlend mode="normal" in="SourceGraphic" in2="effect1_dropShadow_21_2891" result="shape"/>
</filter>
</defs>
</svg>
