<svg width="48" height="48" viewBox="0 0 48 48" fill="none" xmlns="http://www.w3.org/2000/svg">
<g filter="url(#filter0_d_21_2905)">
<circle cx="24" cy="20" r="20" fill="#7B4AE2" fill-opacity="0.2" shape-rendering="crispEdges"/>
</g>
<path d="M23.9744 33C22.1393 33 20.3221 32.6637 18.6267 32.0104C16.9312 31.3571 15.3907 30.3995 14.093 29.1924C12.7954 27.9852 11.766 26.5521 11.0637 24.9749C10.3615 23.3977 10 21.7072 10 20C10 18.2928 10.3615 16.6023 11.0637 15.0251C11.766 13.4479 12.7954 12.0148 14.093 10.8076C15.3907 9.60045 16.9312 8.64288 18.6267 7.98957C20.3221 7.33625 22.1393 7 23.9744 7C27.6807 7 31.2352 8.36964 33.8559 10.8076C36.4766 13.2456 37.9489 16.5522 37.9489 20C37.9489 23.4478 36.4766 26.7544 33.8559 29.1924C31.2352 31.6304 27.6807 33 23.9744 33Z" stroke="#7B4AE2" stroke-width="2" stroke-linecap="round" stroke-linejoin="round"/>
<path d="M20.869 17.111C20.0926 15.6666 16.9872 15.6666 16.2108 17.111M31.738 17.111C30.9616 15.6666 27.8562 15.6666 27.0798 17.111M27.8562 24.3333C27.3502 24.8137 26.7462 25.1954 26.0797 25.4559C25.4131 25.7165 24.6974 25.8507 23.9744 25.8507C23.2514 25.8507 22.5357 25.7165 21.8691 25.4559C21.2026 25.1954 20.5986 24.8137 20.0926 24.3333" stroke="#7849DC" stroke-width="2" stroke-linecap="round" stroke-linejoin="round"/>
<defs>
<filter id="filter0_d_21_2905" x="0" y="0" width="48" height="48" filterUnits="userSpaceOnUse" color-interpolation-filters="sRGB">
<feFlood flood-opacity="0" result="BackgroundImageFix"/>
<feColorMatrix in="SourceAlpha" type="matrix" values="0 0 0 0 0 0 0 0 0 0 0 0 0 0 0 0 0 0 127 0" result="hardAlpha"/>
<feOffset dy="4"/>
<feGaussianBlur stdDeviation="2"/>
<feComposite in2="hardAlpha" operator="out"/>
<feColorMatrix type="matrix" values="0 0 0 0 0 0 0 0 0 0 0 0 0 0 0 0 0 0 0.25 0"/>
<feBlend mode="normal" in2="BackgroundImageFix" result="effect1_dropShadow_21_2905"/>
<feBlend mode="normal" in="SourceGraphic" in2="effect1_dropShadow_21_2905" result="shape"/>
</filter>
</defs>
</svg>
