<svg width="23" height="26" viewBox="0 0 23 26" fill="none" xmlns="http://www.w3.org/2000/svg">
<path d="M22.4119 20.191C22.3737 20.191 22.3342 20.1946 22.294 20.2023C21.6623 20.3243 21.0205 20.3859 20.3773 20.3863C14.9233 20.3863 10.3621 15.9096 10.3621 10.2016C10.3621 6.53453 12.3059 3.16228 15.4663 1.34587C15.9534 1.06661 15.831 0.321016 15.2777 0.217719C14.6334 0.0971278 13.579 0.000330129 12.9249 0.000330129C5.7698 -0.0506802 0 5.81638 0 13.0008C0 20.1736 5.75829 26 12.8742 26C16.8457 26 20.4733 24.1749 22.8721 21.1874C23.2 20.7249 22.8433 20.191 22.4119 20.191ZM12.8742 23.2145C7.29997 23.2145 2.76122 18.6299 2.76122 13.0008C2.76122 8.57175 5.56673 4.79501 9.47444 3.37903C8.23764 5.39855 7.54733 7.75466 7.54733 10.2036C7.54733 15.9743 11.294 20.8758 16.458 22.5529C15.3305 22.9881 14.1167 23.2145 12.8742 23.2145Z" fill="#F0E892"/>
</svg>
