<svg width="64" height="61" viewBox="0 0 64 61" fill="none" xmlns="http://www.w3.org/2000/svg">
<path d="M63.967 13.7929C64 13.8539 64 13.9455 64 14.037V27.1281C64 27.4332 63.8023 27.7994 63.5057 27.952L51.6087 34.2991V46.8409C51.6087 47.1766 51.4439 47.4817 51.1143 47.6648L26.3316 60.8779C26.2657 60.9085 26.1998 61 26.1339 61H25.4089C25.4089 61 25.4089 60.9085 25.277 60.8779L0.494351 47.6648C0.342481 47.5784 0.21722 47.4571 0.130638 47.3128C0.0440561 47.1685 -0.000930113 47.006 1.45773e-05 46.8409V7.5983C1.45773e-05 7.44572 1.45451e-05 7.35418 0.0329703 7.29315C0.0329703 7.26263 0.0659259 7.23212 0.0659259 7.2016C0.0659259 7.14057 0.0988816 7.11006 0.131837 7.04903C0.131837 7.01851 0.164793 6.98799 0.197749 6.95748L0.296616 6.86593L0.395483 6.77439C0.428439 6.74387 0.461395 6.71336 0.494351 6.71336L12.8857 0.0915458C13.2153 -0.0305153 13.6107 -0.0305153 13.8744 0.0915458L26.3316 6.71336C26.3646 6.74387 26.3975 6.74387 26.4305 6.77439L26.5294 6.86593L26.6282 6.95748C26.6612 6.98799 26.6941 7.01851 26.6941 7.04903C26.7271 7.11006 26.76 7.14057 26.76 7.2016C26.76 7.23212 26.793 7.26263 26.793 7.29315C26.826 7.38469 26.826 7.44572 26.826 7.5983V32.0105L37.1741 26.5788V14.037C37.1741 13.9455 37.1741 13.8539 37.207 13.7929L37.24 13.7014C37.24 13.7014 37.2729 13.6098 37.3059 13.5488C37.3059 13.5183 37.3388 13.4877 37.3718 13.4572L37.4707 13.3657L37.5695 13.2741C37.6025 13.2436 37.6354 13.2131 37.6684 13.2131L50.1256 6.5913C50.3893 6.4082 50.7848 6.4082 51.1143 6.5913L63.5057 13.2131C63.5386 13.2131 63.5716 13.2436 63.6045 13.2741L63.7034 13.3657L63.8023 13.4572C63.8352 13.4877 63.8352 13.5183 63.8682 13.5488C63.9011 13.6098 63.9011 13.7014 63.9341 13.7014C63.967 13.7014 63.967 13.7014 63.967 13.7929ZM61.9567 26.5788V15.6848L51.6087 21.1776V32.0105L61.9567 26.5788ZM49.5654 46.2916V35.3672L26.826 47.3902V58.4062L49.5654 46.2916ZM2.04327 9.12406V46.2916L24.7827 58.4062V47.3902L12.9187 41.1651H12.8857C12.8527 41.1651 12.8198 41.1651 12.7868 41.0735C12.7539 41.0735 12.7209 41.043 12.688 41.0125L12.5891 40.921C12.5561 40.8904 12.5561 40.8599 12.5232 40.8294C12.4902 40.7684 12.4902 40.7379 12.4573 40.7074C12.4573 40.6463 12.4243 40.6158 12.4243 40.5853C12.3914 40.5548 12.3914 40.4937 12.3914 40.4632V14.6778L2.04327 9.12406ZM13.413 2.04452L3.09785 7.5983L13.413 13.03L23.7611 7.5983L13.413 2.04452ZM24.7827 33.1701V9.12406L14.4346 14.6778V38.6933L24.7827 33.1701ZM50.587 8.51376L40.2389 14.037L50.587 19.5298L60.9022 14.037L50.587 8.51376ZM49.5654 21.1776L39.2173 15.6848V26.5788L49.5654 32.0105V21.1776ZM25.8043 45.7424L48.4779 33.7194L38.1957 28.2266L15.5222 40.3412L25.8043 45.7424Z" fill="#7B4AE2" fill-opacity="0.5"/>
</svg>
