<svg width="61" height="56" viewBox="0 0 61 56" fill="none" xmlns="http://www.w3.org/2000/svg">
<path d="M28.5024 0.0150698C28.3713 0.0260164 27.9539 0.0643294 27.5782 0.0916959C18.9142 0.808697 10.7987 5.09976 5.65875 11.6951C2.79658 15.3622 0.965982 19.5219 0.274291 23.9279C0.0298143 25.4659 0 25.9202 0 28.0055C0 30.0908 0.0298143 30.5451 0.274291 32.0831C1.93196 42.5973 10.0832 51.4312 21.1383 54.7042C23.118 55.2898 25.205 55.6894 27.5782 55.9302C28.5024 56.0233 32.4976 56.0233 33.4218 55.9302C37.5183 55.5142 40.9887 54.5838 44.4113 52.9801C44.9361 52.7338 45.0374 52.6681 44.9659 52.6134C44.9182 52.5806 42.6821 49.8275 39.9988 46.4997L35.1212 40.4517L29.0093 32.1488C25.6462 27.584 22.8795 23.8513 22.8556 23.8513C22.8318 23.8458 22.8079 27.5348 22.796 32.0393C22.7781 39.9263 22.7721 40.2438 22.6648 40.4299C22.5098 40.698 22.3905 40.8075 22.1401 40.9279C21.9493 41.0155 21.7823 41.0319 20.8819 41.0319H19.8503L19.576 40.8732C19.3972 40.7692 19.266 40.6324 19.1765 40.4736L19.0513 40.2273L19.0632 29.2534L19.0811 18.274L19.266 18.0605C19.3614 17.9456 19.5641 17.7978 19.7072 17.7266C19.9517 17.6172 20.0471 17.6062 21.0787 17.6062C22.2951 17.6062 22.4979 17.65 22.8139 17.9675C22.9033 18.055 26.2127 22.6307 30.172 28.1423C34.1314 33.6539 39.5457 41.1797 42.2051 44.8742L47.035 51.5899L47.2795 51.4421C49.444 50.1504 51.7337 48.3114 53.5464 46.3957C57.4044 42.3291 59.8909 37.3703 60.7257 32.0831C60.9702 30.5451 61 30.0908 61 28.0055C61 25.9202 60.9702 25.4659 60.7257 23.9279C59.068 13.4137 50.9168 4.57979 39.8617 1.30677C37.9118 0.726598 35.8368 0.327047 33.5112 0.0862226C32.9388 0.0314897 28.9974 -0.0287165 28.5024 0.0150698ZM40.9887 16.9494C41.2749 17.0808 41.5074 17.3326 41.5909 17.5953C41.6386 17.7376 41.6505 20.7807 41.6386 27.6388L41.6207 37.4798L39.7305 34.8197L37.8343 32.1597V25.0061C37.8343 20.3812 37.8582 17.7814 37.8939 17.6555C37.9893 17.349 38.198 17.1082 38.4843 16.9659C38.7287 16.8509 38.8182 16.84 39.7543 16.84C40.6369 16.84 40.7919 16.8509 40.9887 16.9494Z" fill="#7B4AE2" fill-opacity="0.5"/>
</svg>
