<svg width="57" height="62" viewBox="0 0 57 62" fill="none" xmlns="http://www.w3.org/2000/svg">
<path d="M28.5 0L0 15.5V46.5L28.5 62L57 46.5V15.5L28.5 0ZM44.9502 42.8575C44.9502 44.6787 43.1791 46.19 40.7582 46.19C39.0281 46.19 37.0541 45.5312 35.8203 44.0975L19.3701 25.6499V42.8549C19.3701 44.7175 17.8074 46.1874 15.8772 46.1874H15.6688C13.6921 46.1874 12.132 44.6374 12.132 42.8549V19.1425C12.132 17.3212 13.8593 15.81 16.2446 15.81C18.0157 15.81 20.0281 16.4687 21.2619 17.9025L37.6299 36.3501V19.1425C37.6299 17.2799 39.2749 15.81 41.1667 15.81H41.3723C43.3463 15.81 44.9091 17.36 44.9091 19.1425V42.8575H44.9502Z" fill="#7B4AE2" fill-opacity="0.5"/>
</svg>
