<svg width="64" height="59" viewBox="0 0 64 59" fill="none" xmlns="http://www.w3.org/2000/svg">
<path d="M21.2903 44.6403C20.9903 42.1128 20.1653 40.0598 18.1628 39.0671C17.379 38.6797 16.7003 37.9728 15.9278 37.5274C15.0503 37.019 14.1578 36.5348 13.2315 36.22C12.5303 35.9779 11.8778 36.3847 11.4615 37.1787C11.0678 37.9244 11.3528 38.6265 11.6828 39.2511C12.054 39.9532 12.4665 40.6213 12.8828 41.2798C13.5728 42.3741 14.304 43.4248 14.9753 44.5338C15.6165 45.5942 16.164 46.7707 16.0703 48.1749C15.864 51.2544 14.784 53.8062 13.044 55.8832C12.8528 56.106 12.5153 56.2657 12.2678 56.2367C11.1578 56.0818 10.149 55.5395 9.33529 54.5372C8.40154 53.3896 8.54404 52.0387 9.66154 51.2011C9.92779 51.0026 10.2053 50.8186 10.449 50.5765C11.1315 49.9132 11.3603 48.7801 10.989 47.7972C10.8128 47.3227 10.614 46.8095 10.3215 46.4657C8.89279 44.7856 7.49016 43.052 5.96016 41.5221C2.25128 37.8033 0.346408 32.8841 0.0537826 26.9284C-0.276218 20.3142 0.912533 14.1407 3.61628 8.49004C4.64003 6.34507 5.83254 4.30162 7.66254 3.2414C8.90754 2.51995 10.2725 2.11323 11.6039 1.66294C15.2678 0.418562 18.9652 -0.515929 22.779 0.316881C26.064 1.02864 28.4679 3.21235 29.5704 7.38124C30.2942 10.1072 30.4667 12.9252 30.2417 15.8112C29.7992 21.4812 26.5554 26.5507 22.3253 28.0517C20.4915 28.7005 19.4903 28.3374 18.3878 26.3667C17.5965 24.9481 16.9403 23.4035 16.2315 21.9072C16.1265 21.6844 16.0515 21.4278 15.9615 21.1906C15.8753 20.9533 15.7815 20.7257 15.6915 20.4885C15.9578 22.9482 16.4003 25.316 17.439 27.427C18.0015 28.5745 18.7515 29.4218 19.8503 29.5477C23.8928 30.0174 27.3054 28.3033 29.7279 24.1052C32.4392 19.4084 33.0355 14.0048 32.2517 8.31557C32.0979 7.19225 31.8392 6.09313 31.6554 4.97465C31.5317 4.2532 31.7529 3.72059 32.3042 3.46881C32.5592 3.35745 32.8217 3.26545 33.0767 3.19766C36.3843 2.2777 39.7293 1.97266 43.1006 2.41327C46.9257 2.90715 50.5444 4.26288 53.7807 7.00841C58.8471 11.3129 61.9858 17.4381 63.6921 24.8464C63.9396 25.9213 63.9771 27.0979 63.9996 28.231C64.0146 28.9864 63.6396 29.1849 63.1933 28.7104C62.7021 28.1923 62.2521 27.6016 61.8283 26.9915C61.4346 26.4153 61.1196 25.7568 60.7371 25.1516C60.4408 24.6771 60.1821 24.7497 60.0396 25.3404C59.9496 25.6987 59.8708 26.0522 59.7921 26.4105C58.9071 30.4874 57.5121 34.206 55.2508 37.3388C54.9358 37.7795 54.6546 38.4331 54.6171 39.0141C54.5196 40.6217 54.4483 42.2631 54.5683 43.8658C54.8158 47.3085 55.2021 50.7364 55.5021 54.1744C55.6708 56.116 55.1871 57.2587 53.7733 57.9319C52.7796 58.4015 51.7146 58.7453 50.6646 58.8421C48.9921 58.9922 47.3046 58.8857 45.6246 58.8857C45.5796 56.4648 45.7408 54.0872 43.9783 52.7896C44.3196 50.9932 44.7133 49.2889 44.9496 47.5458C45.1446 46.098 44.9796 44.6745 44.1921 43.4882C43.4533 42.3698 42.5271 42.0647 41.6794 42.7038C39.1257 44.6261 36.4706 44.6358 33.7668 43.3769C32.5256 42.7958 31.6593 43.1251 30.9729 44.5874C30.2342 46.161 29.9229 47.9283 30.0054 49.7151C30.1104 51.9666 30.4142 54.1939 30.6467 56.4357C30.7742 57.6898 30.6654 58.0142 29.7017 58.3337C27.5604 59.0358 25.3817 59.1133 23.1915 58.8857C23.0753 58.8712 22.959 58.8082 22.884 58.784C22.7753 56.4357 22.9665 53.9952 20.799 52.746C21.759 50.1168 21.6278 47.3908 21.2978 44.6648L21.2903 44.6406V44.6403ZM8.34516 35.4261C8.66391 35.0388 8.91891 34.4335 9.00891 33.8767C9.23391 32.4822 8.42391 30.6133 7.48641 30.0952C6.98766 29.8143 6.55266 29.916 6.20016 30.4293C5.34141 31.6833 4.49391 32.9519 3.65003 34.2255C3.50753 34.4434 3.38003 34.7 3.27878 34.9566C2.94128 35.7943 3.14003 36.4044 3.86003 36.6319C4.29503 36.7723 4.74503 36.8014 5.19128 36.8837C6.35379 36.7384 7.47879 36.4867 8.34504 35.4311V35.4263L8.34516 35.4261ZM8.44266 21.4861C8.43891 20.4886 7.79391 19.6558 7.03266 19.651C6.24891 19.6461 5.57391 20.5516 5.60016 21.549C5.63391 22.5513 6.27891 23.3551 7.05141 23.3357C7.83141 23.3212 8.45391 22.498 8.44641 21.4909L8.44266 21.4861Z" fill="#7B4AE2" fill-opacity="0.5"/>
</svg>
