<svg width="64" height="59" viewBox="0 0 64 59" fill="none" xmlns="http://www.w3.org/2000/svg">
<path d="M52.6208 20.2406C51.9569 20.0299 51.269 19.8306 50.5606 19.6421C50.677 19.2041 50.7839 18.7717 50.8789 18.3467C52.4385 11.3678 51.4188 5.74564 47.9368 3.89457C44.5981 2.11964 39.1378 3.97029 33.6232 8.39454C33.0929 8.81998 32.5612 9.2704 32.0296 9.74246C31.6754 9.43014 31.3218 9.12831 30.9691 8.83961C25.1897 4.10892 19.3967 2.11534 15.9181 3.97176C12.5826 5.75184 11.5948 11.0372 12.9986 17.6511C13.1342 18.29 13.2927 18.9424 13.4718 19.6057C12.652 19.8202 11.8605 20.0489 11.1031 20.2923C4.32733 22.4701 0 25.8832 0 29.4235C0 33.0799 4.64539 36.7474 11.7029 38.9712C12.2599 39.1467 12.8378 39.3126 13.4333 39.4701C13.24 40.1875 13.0719 40.8905 12.9307 41.5762C11.5922 48.0753 12.6375 53.2359 15.9642 55.0047C19.4003 56.8314 25.1671 54.9538 30.7825 50.4287C31.2264 50.071 31.6718 49.6917 32.118 49.2941C32.6964 49.8075 33.2738 50.2934 33.8482 50.7492C39.2874 55.0641 44.6595 56.8065 47.9831 55.0327C51.4158 53.2008 52.5314 47.6571 51.083 40.9124C50.9724 40.3973 50.8437 39.871 50.6991 39.3354C51.1041 39.225 51.5017 39.1111 51.8894 38.9926C59.2263 36.7516 64 33.1288 64 29.4235C64 25.8704 59.5331 22.4342 52.6208 20.2406ZM51.0295 36.6002C50.6796 36.707 50.3205 36.8102 49.9546 36.9103C49.1446 34.5464 48.0514 32.0328 46.7137 29.4358C47.9903 26.9006 49.0412 24.4191 49.8285 22.0706C50.4832 22.2452 51.1186 22.4294 51.7309 22.6238C57.6533 24.5033 61.2659 27.2822 61.2659 29.4235C61.2659 31.7043 57.3644 34.6651 51.0295 36.6002ZM48.4009 41.4019C49.0414 44.3843 49.1329 47.0808 48.7086 49.1887C48.3275 51.0829 47.5609 52.3457 46.6131 52.8515C44.5962 53.9277 40.2829 52.5288 35.6313 48.8386C35.098 48.4156 34.5609 47.9639 34.0221 47.4858C35.8254 45.6676 37.6277 43.5539 39.3867 41.2064C42.4807 40.9533 45.4037 40.5396 48.0545 39.9747C48.1851 40.4602 48.301 40.9363 48.4009 41.4019ZM21.819 52.6655C19.8485 53.3071 18.279 53.3254 17.3303 52.8211C15.3115 51.7477 14.4723 47.6043 15.6171 42.0463C15.7482 41.4097 15.9043 40.7559 16.0841 40.0875C18.7059 40.622 21.6075 41.0066 24.7088 41.2384C26.4797 43.5354 28.3341 45.6468 30.2028 47.4956C29.7945 47.859 29.3878 48.2049 28.9834 48.5309C26.5003 50.5318 24.012 51.9515 21.819 52.6655ZM12.5872 36.5862C9.46645 35.6029 6.88926 34.3249 5.12272 32.9304C3.53537 31.6772 2.73395 30.433 2.73395 29.4235C2.73395 27.2751 6.20836 24.5348 12.0031 22.6723C12.7062 22.4463 13.4422 22.2333 14.2061 22.0333C15.0069 24.4349 16.0575 26.9458 17.3253 29.4848C16.0411 32.0616 14.9756 34.6125 14.1669 37.0422C13.6223 36.8979 13.0948 36.7461 12.5872 36.5862ZM15.6818 17.1671C14.479 11.5005 15.2778 7.22578 17.2879 6.15312C19.429 5.0104 24.1636 6.63967 29.1537 10.7244C29.4727 10.9855 29.7929 11.2587 30.1141 11.5414C28.2546 13.3821 26.4172 15.4777 24.662 17.7612C21.652 18.0184 18.7708 18.4315 16.1217 18.9848C15.9552 18.3672 15.8076 17.7604 15.6818 17.1671ZM43.2885 23.4514C42.6552 22.443 42.0051 21.4584 41.3423 20.5007C43.3843 20.7387 45.3407 21.0546 47.178 21.4412C46.6264 23.0709 45.9389 24.7748 45.1296 26.5216C44.5491 25.5055 43.9351 24.4811 43.2885 23.4514ZM32.0305 13.3427C33.2916 14.6022 34.5545 16.0084 35.7967 17.5342C34.545 17.4796 33.2777 17.4513 32 17.4513C30.7344 17.4513 29.4765 17.479 28.2325 17.5326C29.4759 16.021 30.7497 14.6167 32.0305 13.3427ZM20.7005 23.4688C20.0679 24.48 19.4652 25.4989 18.8938 26.5197C18.0977 24.779 17.4165 23.0673 16.8601 21.4145C18.6862 21.0378 20.6334 20.7298 22.6624 20.4963C21.9903 21.4628 21.3348 22.4546 20.7005 23.4686V23.4688ZM22.7208 38.5304C20.6245 38.3148 18.648 38.0227 16.8224 37.6564C17.3877 35.9741 18.0839 34.2258 18.8969 32.4476C19.4698 33.4677 20.0748 34.487 20.7113 35.5004H20.7114C21.3597 36.5329 22.0314 37.5442 22.7208 38.5304ZM32.1062 45.6819C30.8103 44.393 29.5178 42.9673 28.2555 41.4337C29.4809 41.478 30.7303 41.5007 32 41.5007C33.3045 41.5007 34.5941 41.4736 35.8633 41.4215C34.6171 42.9827 33.3587 44.4107 32.1062 45.6819ZM45.1557 32.357C46.0111 34.1544 46.7323 35.8935 47.3048 37.5471C45.4492 37.9374 43.4457 38.2517 41.3348 38.4853C41.9991 37.5147 42.655 36.5132 43.2994 35.4831C43.9514 34.4409 44.5704 33.3971 45.1557 32.357ZM40.9311 34.2239C39.9307 35.823 38.9036 37.3496 37.8609 38.7906C35.9618 38.9157 33.9997 38.9802 32 38.9802C30.0084 38.9802 28.071 38.9232 26.2055 38.8116C25.1208 37.3517 24.0713 35.8206 23.0773 34.2377H23.0775C22.0861 32.659 21.1736 31.067 20.3468 29.484C21.1734 27.8972 22.0835 26.3035 23.0692 24.7277L23.069 24.728C24.0573 23.148 25.0975 21.6243 26.1722 20.1736C28.0756 20.041 30.0274 19.9718 31.9999 19.9718H32C33.9814 19.9718 35.9357 20.0415 37.8385 20.1753C38.8968 21.6154 39.9299 23.1341 40.9221 24.7143C41.9257 26.3123 42.8475 27.8955 43.6812 29.4482C42.85 31.0275 41.9302 32.6267 40.9311 34.2239ZM46.5712 6.07813C48.7143 7.21749 49.5478 11.8125 48.2012 17.838C48.1153 18.2224 48.0186 18.6141 47.9136 19.0109C45.2584 18.4461 42.3751 18.0259 39.3563 17.7648C37.5978 15.4561 35.7754 13.3573 33.9462 11.5403C34.438 11.1041 34.9291 10.6883 35.4181 10.2958C40.1431 6.50514 44.5591 5.00851 46.5712 6.07813ZM32 24.155C35.1562 24.155 37.715 26.5137 37.715 29.4235C37.715 32.3331 35.1562 34.692 32 34.692C28.8438 34.692 26.285 32.3331 26.285 29.4235C26.285 26.5137 28.8438 24.155 32 24.155Z" fill="#7B4AE2" fill-opacity="0.5"/>
</svg>
