<svg width="44" height="44" viewBox="0 0 44 44" fill="none" xmlns="http://www.w3.org/2000/svg">
<path d="M28.7531 0H15.2469C2.92179 0 0 2.92178 0 15.2469V28.7531C0 41.0782 2.92179 44 15.2469 44H28.7531C41.0782 44 44 41.0782 44 28.7531V15.2469C44 2.92178 41.0493 0 28.7531 0ZM35.5206 31.3875H32.3266C31.1167 31.3875 30.744 30.4278 28.5675 28.2224C26.6769 26.3895 25.8396 26.1462 25.3735 26.1462C24.7149 26.1462 24.5279 26.3318 24.5279 27.2352V30.1212C24.5279 30.8953 24.2845 31.36 22.2358 31.36C18.8479 31.36 15.0888 29.3113 12.453 25.4945C8.47799 19.9011 7.39039 15.7116 7.39039 14.8454C7.39039 14.3793 7.57601 13.9434 8.47111 13.9434H11.672C12.4819 13.9434 12.7899 14.3161 13.1047 15.1823C14.6873 19.7513 17.3231 23.7538 18.4107 23.7538C18.8122 23.7538 18.9978 23.5681 18.9978 22.5438V17.8249C18.8754 15.6484 17.7301 15.4614 17.7301 14.6887C17.7301 14.3161 18.0381 13.9434 18.5317 13.9434H23.5654C24.246 13.9434 24.4962 14.3161 24.4962 15.1177V21.4837C24.4962 22.1712 24.8042 22.4146 24.9898 22.4146C25.3913 22.4146 25.7351 22.1712 26.4789 21.426C28.7779 18.8479 30.4251 14.8729 30.4251 14.8729C30.6395 14.4068 31.0122 13.9709 31.822 13.9709H35.0229C35.9826 13.9709 36.1971 14.4645 35.9826 15.152C35.5811 17.0137 31.6639 22.5424 31.6639 22.5424C31.327 23.1007 31.1978 23.344 31.6639 23.9669C32.0076 24.433 33.1255 25.3996 33.8693 26.2658C35.2374 27.8195 36.2892 29.123 36.5697 30.0249C36.8846 30.92 36.4199 31.3861 35.5165 31.3861L35.5206 31.3875Z" fill="#7B4AE2" fill-opacity="0.5"/>
</svg>
